<?xml version="1.0" encoding="utf-8"?>
<!-- Generator: Adobe Illustrator 21.1.0, SVG Export Plug-In . SVG Version: 6.00 Build 0)  -->
<svg version="1.1" id="Layer_1" xmlns="http://www.w3.org/2000/svg" xmlns:xlink="http://www.w3.org/1999/xlink" x="0px" y="0px"
	 viewBox="0 0 128 128" style="enable-background:new 0 0 128 128;" xml:space="preserve">
<style type="text/css">
	.st0{fill:#5B4282;}
</style>
<path class="st0" d="M75.7,65.6C73.4,64.8,70,65,65.6,65H48v23h18.8c2.9,0,5-0.3,6.2-0.5c2.1-0.4,3.9-1.1,5.3-2
	c1.4-0.9,2.6-2.2,3.5-3.9c0.9-1.7,1.4-3.6,1.4-5.8c0-2.6-0.7-4.5-2-6.4C79.9,67.4,78,66.4,75.7,65.6z M73.3,55.1
	c2.3-0.7,4.1-1.9,5.2-3.5c1.2-1.6,1.8-3.6,1.8-6c0-2.3-0.5-4.3-1.6-6.1s-2.7-2.4-4.7-3.1c-2-0.6-5.5-0.4-10.5-0.4H48v20h16.6
	C68.6,56,71.5,55.6,73.3,55.1z M126,18.6C126,9.4,118.6,2,109.4,2H17.6C8.4,2,1,9.4,1,18.6v91.8c0,9.2,7.4,16.6,16.6,16.6h91.8
	c9.2,0,16.6-7.4,16.6-16.6V18.6z M90.6,84.7c-1.4,2.8-3,4.9-5.1,6.4c-2,1.5-4.5,2.8-7.5,3.5c-3,0.8-6.7,1.3-11.1,1.3H39V27h27.4
	c5.3,0,9.5,0.6,12.7,2c3.2,1.4,5.7,3.5,7.5,6.4c1.8,2.9,2.7,5.9,2.7,9.1c0,2.9-0.8,5.7-2.4,8.3c-1.6,2.6-4,4.7-7.2,6.3
	c4.2,1.2,7.4,3.3,9.6,6.2c2.2,2.9,3.4,6.4,3.4,10.4C92.6,79,91.9,82,90.6,84.7z"/>
</svg>
