<?xml version="1.0" encoding="utf-8"?>
<!-- Generator: Adobe Illustrator 21.1.0, SVG Export Plug-In . SVG Version: 6.00 Build 0)  -->
<svg version="1.1" id="Layer_1" xmlns="http://www.w3.org/2000/svg" xmlns:xlink="http://www.w3.org/1999/xlink" x="0px" y="0px"
	 viewBox="0 0 128 128" style="enable-background:new 0 0 128 128;" xml:space="preserve">
<style type="text/css">
	.st0{fill:#E44D26;}
	.st1{fill:#F16529;}
	.st2{fill:#EBEBEB;}
	.st3{fill:#FFFFFF;}
</style>
<path class="st0" d="M19,113.9L9,1.7H119l-10,112.2l-45,12.5L19,113.9z"/>
<path class="st1" d="M64,116.8l36.4-10.1l8.6-95.9H64L64,116.8z"/>
<path class="st2" d="M64,52.5H45.8l-1.3-14.1H64V24.6H29.5l0.3,3.7l3.4,37.9H64L64,52.5z M64,88.2L64,88.2l-15.4-4.1l-1-11H33.8
	l1.9,21.6l28.2,7.8l0.1,0V88.2z"/>
<path class="st3" d="M64,52.5v13.8h16.9l-1.6,17.8L64,88.2v14.3l28.2-7.8l0.2-2.3l3.2-36.2l0.3-3.7h-3.7H64z M64,24.6v13.8h33.2
	l0.3-3.1l0.6-7l0.3-3.7H64z"/>
</svg>
