<?xml version="1.0" encoding="utf-8"?>
<!-- Generator: Adobe Illustrator 21.1.0, SVG Export Plug-In . SVG Version: 6.00 Build 0)  -->
<svg version="1.1" id="Layer_1" xmlns="http://www.w3.org/2000/svg" xmlns:xlink="http://www.w3.org/1999/xlink" x="0px" y="0px"
	 viewBox="0 0 128 128" style="enable-background:new 0 0 128 128;" xml:space="preserve">
<style type="text/css">
	.st0{fill:#2A4D80;}
</style>
<path class="st0" d="M122.3,58.6c-0.6-1.3-0.9-2.8-1-4.3c-0.2-3.6,0-7.1-0.2-10.7c-0.1-3.2-1.3-6.1-4.3-7.7
	c-2.7-1.4-5.8-1.6-8.8-1.6V40c1,0,0.8,0.1,1,0.1c4,0.2,5.4,1.5,5.4,5.5c0,3,0,5.9,0.1,8.9c0.1,3.6,0.6,7,3.9,9.3
	c0.1,0,0.1,0.2,0.1,0.3c-1.7,1.2-3,2.7-3.4,4.8c-0.3,1.7-0.5,3.4-0.5,5.2c-0.1,3.1,0,6.2-0.1,9.4c-0.1,2.4-1.2,3.6-3.6,4.1
	c-0.9,0.2-1.8,0.3-2.8,0.4v5.7c2-0.1,3-0.2,4.4-0.3c5.2-0.6,8.1-3.2,8.7-8.2c0.2-1.6,0.2-3.2,0.2-4.8c0.1-3,0-6,0.3-8.9
	c0.3-3,2.5-4.7,5.5-4.5v-6C125,61.4,123.2,60.5,122.3,58.6z M28.3,70.8c0-11.5-0.3-23.1-0.3-34.6v-1.8c-3,0-6.2,0-9.4,0
	c-1.3,0-2.4,0.1-3.7,0.3c-4.9,0.7-7.2,3-8.1,7.8c-0.3,1.4-0.2,2.9-0.2,4.3c0,2.7,0,5.5,0,8.2c-0.1,3.4-1.7,6.1-5.2,6.3
	c-0.1,0,0.6,0.2-0.4,0.2v5.3c4,0.6,5.3,2.2,5.5,6c0,0.6,0.1,1.2,0.1,1.8c0,3.3,0,6.6,0.1,10c0.1,3.1,0.8,5.9,3.8,7.5
	c2.7,1.5,6.5,1.6,8.5,1.7V88c0,0-0.2-0.1-0.4-0.1c-4.3-0.3-5.3-1.4-5.3-5.8c0-2.9,0.1-5.8,0.1-8.6c-0.1-3.6-0.6-7-3.9-9.3
	c-0.1,0,0-0.2,0-0.4c2.2-1.4,3.4-3.5,3.7-6.1c0.2-1.4,0.2-2.9,0.3-4.3c0.1-3,0-5.9,0.1-8.9c0.1-2.1,1.4-3.6,3.1-4
	c1.6-0.3,2.4-0.3,5.4-0.5v2.1c0,10.3-0.4,20.6-0.3,30.9c0,3.5,0.4,7,4.2,8.5c2.1,0.8,4.3,1.1,6.6,1.6c0.4-2.3,0.5-4.2,0.8-6.1
	C29,75.8,28.3,75.2,28.3,70.8z M55,50.9c-7.3-3.5-16.2-0.4-19.7,6.9c-2.6,5.5-2.5,11.3-0.2,16.9c1.2,3,3.5,5.3,6.5,6.7
	c5.9,2.6,11.9,2,17.8,0.1c0.3-0.1,0.7-0.7,0.7-1c-0.2-1.7-0.5-3.3-0.8-5c-1.4,0.4-2.6,0.7-3.8,0.9C52.3,77,49,77,45.9,75.7
	c-3.1-1.2-5.1-4.7-4.6-7.7h20.9c0.3-3,0.2-7.1-1.1-10.5C59.9,54.4,58,52.3,55,50.9L55,50.9z M54.9,63H41.2c0-4,3.3-7.6,7.5-7.5
	C52.5,55.6,55.1,59,54.9,63z M111.1,75.3c0.5-5.1-1-7.9-5.5-10.1c-1.6-0.8-3.3-1.4-4.9-2.1c-1.2-0.5-2.4-1.1-3.6-1.8
	c-1.1-0.7-1.6-1.8-1.4-3.1c0.2-1.3,1-2.1,2.2-2.4c1.4-0.3,2.9-0.5,4.4-0.4c2,0.2,4.1,0.7,6.2,1.1l1.3-5.8c-2.9-0.4-5.5-1-8.2-1.2
	c-3-0.2-5.9,0.3-8.6,1.7c-5.8,3-5.9,12.1-0.6,15.1c1.6,0.9,3.3,1.6,4.9,2.4c1.7,0.8,3.5,1.5,5.2,2.5c1.3,0.7,1.7,2,1.4,3.5
	c-0.3,1.4-1.4,2-2.6,2.1c-1.9,0.2-3.8,0.3-5.6,0.1c-2.2-0.3-4.4-0.9-6.7-1.5l-1.2,5.8c5.3,2,10.6,2.3,15.9,1.1
	C108.2,81.4,110.7,78.8,111.1,75.3L111.1,75.3z M82.6,65.8c-2-1-4.1-1.8-6.1-2.7c-1.3-0.6-2.6-1.1-3.7-1.9c-2.1-1.5-1.7-4.5,0.7-5.3
	c1.4-0.5,3-0.6,4.5-0.5c2,0.2,4,0.7,6.2,1.1l1.3-5.5c-1.1-0.3-2.1-0.6-3.1-0.8c-4-0.8-8-1.2-11.9,0.2c-3.4,1.2-5.7,3.4-6.2,7.1
	c-0.5,4.2,0.9,7.4,4.7,9.4c1.5,0.8,3.2,1.4,4.7,2.1c1.6,0.7,3.2,1.4,4.6,2.3c1.1,0.7,1.5,1.9,1.2,3.3c-0.3,1.4-1.3,2-2.5,2.2
	c-1.9,0.2-3.8,0.4-5.6,0.2c-2.2-0.3-4.4-0.9-6.7-1.5c-0.3,1.6-0.7,3.2-1,4.9c-0.1,0.4,0.3,1,0.7,1.2c5.4,1.9,10.9,2.1,16.3,0.5
	c3.3-1,5.6-3.1,6-6.6C87.5,71.4,86.5,67.9,82.6,65.8z"/>
</svg>
