<?xml version="1.0" standalone="no"?>
<!DOCTYPE svg PUBLIC "-//W3C//DTD SVG 20010904//EN"
 "http://www.w3.org/TR/2001/REC-SVG-20010904/DTD/svg10.dtd">
<svg version="1.0" xmlns="http://www.w3.org/2000/svg"
 width="1000.000000pt" height="1000.000000pt" viewBox="0 0 1000.000000 1000.000000"
 preserveAspectRatio="xMidYMid meet">
<metadata>
Created by potrace 1.15, written by Peter Selinger 2001-2017
</metadata>
<g transform="translate(0.000000,1000.000000) scale(0.100000,-0.100000)"
fill="#000000" stroke="none">
<path d="M1448 6220 c-120 -80 -534 -542 -761 -850 -70 -95 -100 -119 -183
-145 -96 -29 -207 -76 -231 -98 -39 -35 -25 -87 22 -87 12 0 47 9 78 19 78 27
97 25 87 -10 -5 -15 -52 -98 -106 -185 -132 -215 -188 -326 -180 -358 8 -33
47 -44 79 -23 13 8 65 88 116 177 130 229 260 435 301 480 30 32 52 43 150 73
112 35 313 87 337 87 32 0 31 -37 -7 -222 -41 -198 -70 -398 -70 -479 0 -88
42 -149 90 -134 24 8 23 7 44 209 17 159 72 478 100 571 24 79 33 87 114 94
73 7 95 18 106 57 11 36 -15 57 -77 62 -75 6 -83 17 -67 90 12 58 113 367 169
522 37 103 38 124 6 155 -32 33 -62 31 -117 -5z m-54 -254 c-2 -19 -26 -99
-53 -178 -27 -79 -61 -182 -75 -229 -14 -48 -34 -96 -43 -107 -12 -14 -49 -29
-103 -42 -47 -12 -125 -33 -173 -47 -135 -38 -144 -26 -66 88 143 208 456 541
516 549 1 0 0 -15 -3 -34z"/>
<path d="M2325 6215 c-94 -17 -198 -58 -265 -103 -49 -33 -55 -41 -55 -72 0
-32 3 -35 30 -38 17 -2 57 9 89 23 33 14 79 30 102 34 42 8 43 8 32 -13 -6
-11 -62 -75 -124 -141 -238 -255 -370 -436 -485 -670 -86 -175 -123 -289 -140
-429 -19 -148 7 -230 94 -300 36 -29 44 -31 121 -31 76 0 89 3 157 38 80 40
100 44 118 24 6 -8 30 -68 54 -135 87 -239 177 -322 350 -322 87 0 138 22 196
85 44 48 49 65 26 89 -17 16 -31 13 -82 -17 -37 -21 -125 -33 -178 -23 -43 8
-107 63 -147 126 -30 47 -108 275 -108 316 0 17 38 65 121 157 67 72 152 174
191 225 261 346 415 720 379 918 -39 211 -217 307 -476 259z m207 -115 c78
-22 135 -99 145 -195 15 -149 -102 -453 -267 -694 -125 -182 -303 -380 -333
-368 -8 3 -28 30 -45 59 -34 61 -89 114 -128 124 -14 4 -54 3 -87 -1 -123 -14
-122 -14 -120 23 2 47 117 276 201 402 90 134 207 280 361 448 66 73 124 145
127 160 4 15 13 33 22 40 19 15 74 16 124 2z m-647 -1213 c41 -41 73 -135 59
-174 -11 -32 -111 -90 -170 -99 -87 -13 -138 45 -139 157 0 53 4 72 20 89 30
34 94 60 149 60 41 0 53 -5 81 -33z"/>
<path d="M5442 6185 c-119 -27 -256 -106 -336 -195 -41 -45 -46 -84 -13 -104
14 -9 26 -6 57 12 22 12 50 26 64 32 24 9 24 8 14 -28 -6 -20 -42 -95 -81
-166 -236 -435 -497 -1054 -497 -1182 0 -98 77 -143 214 -124 156 22 352 146
562 355 205 204 329 382 440 634 70 160 98 274 98 406 1 99 -2 116 -26 168
-36 77 -112 149 -185 177 -74 29 -221 36 -311 15z m274 -110 c108 -32 154
-133 133 -296 -37 -294 -268 -693 -571 -984 -242 -233 -478 -325 -478 -187 0
127 252 709 517 1195 59 108 77 150 77 181 1 37 5 43 38 59 42 21 147 45 199
46 19 1 58 -6 85 -14z"/>
<path d="M7692 5810 c-42 -26 -92 -105 -92 -145 0 -85 95 -70 154 24 36 57 41
96 17 120 -26 26 -38 26 -79 1z"/>
<path d="M6945 5412 c-117 -41 -210 -115 -251 -198 -23 -47 -26 -63 -22 -118
6 -66 23 -106 98 -223 22 -35 35 -70 38 -102 4 -42 1 -52 -24 -80 -55 -61
-151 -47 -201 28 -28 42 -31 130 -7 191 17 41 14 70 -7 70 -6 0 -28 -17 -49
-38 -47 -46 -64 -105 -56 -185 14 -136 93 -207 232 -207 79 0 120 17 168 70
69 77 69 172 -1 286 -82 135 -98 198 -70 267 31 72 163 157 251 160 133 5 82
-142 -61 -174 -72 -16 -109 -49 -92 -80 9 -19 18 -21 62 -17 121 10 243 101
273 204 20 68 11 108 -29 138 -40 29 -180 34 -252 8z"/>
<path d="M9415 5416 c-95 -30 -197 -102 -243 -171 -59 -89 -52 -195 18 -304
91 -140 102 -196 51 -253 -26 -29 -36 -33 -79 -33 -59 0 -98 24 -124 76 -22
42 -23 117 -3 166 27 65 16 92 -28 72 -56 -26 -96 -151 -77 -243 24 -115 100
-175 222 -176 81 0 105 8 157 55 80 72 90 167 29 274 -93 165 -106 202 -93
267 14 79 158 183 257 187 55 2 78 -15 78 -58 0 -43 -61 -98 -128 -114 -78
-20 -97 -33 -97 -66 0 -28 3 -30 41 -33 24 -2 64 6 96 18 113 42 192 128 203
221 11 89 -41 129 -165 128 -41 0 -93 -6 -115 -13z"/>
<path d="M7932 5410 c-83 -34 -232 -172 -310 -286 -59 -88 -120 -212 -139
-286 -20 -76 -13 -125 24 -169 24 -28 31 -31 73 -27 31 3 68 18 109 43 33 21
64 35 68 32 9 -9 -12 -75 -36 -114 -12 -18 -50 -49 -93 -73 -249 -144 -285
-168 -358 -240 -94 -94 -140 -177 -147 -265 -9 -109 35 -165 132 -165 64 0
109 24 181 95 81 80 162 205 258 397 42 87 87 166 99 177 12 11 67 53 122 94
205 154 401 399 364 458 -14 22 -38 1 -103 -92 -33 -46 -98 -123 -145 -170
-86 -86 -131 -114 -131 -81 0 27 51 127 130 257 67 110 74 125 76 180 1 33 5
89 9 125 7 62 6 67 -20 93 -24 23 -36 27 -84 26 -31 0 -66 -4 -79 -9z m66
-122 c30 -30 4 -97 -78 -199 -29 -36 -50 -72 -50 -86 0 -33 -14 -57 -77 -135
-52 -64 -132 -128 -159 -128 -7 0 -20 7 -28 16 -67 66 94 359 272 496 63 48
98 58 120 36z m-398 -898 c0 -44 -131 -265 -205 -347 -70 -79 -143 -95 -166
-36 -29 77 100 249 271 361 72 47 100 53 100 22z"/>
<path d="M6173 5356 c-74 -24 -177 -107 -264 -215 -162 -199 -196 -427 -78
-512 30 -21 45 -24 125 -24 85 0 95 2 166 38 151 77 343 257 336 316 -6 49
-33 36 -130 -62 -57 -58 -121 -110 -166 -137 -64 -38 -82 -44 -147 -48 -72 -4
-75 -4 -104 26 -21 21 -31 40 -31 61 0 29 6 33 107 83 89 43 120 65 184 127
153 153 199 307 103 347 -40 17 -46 17 -101 0z m42 -136 c10 -32 -24 -90 -94
-161 -68 -68 -112 -97 -167 -109 -31 -7 -31 -7 -24 26 22 94 182 264 251 264
19 0 30 -6 34 -20z"/>
<path d="M7461 5333 c-68 -47 -258 -395 -326 -596 -39 -117 -41 -152 -10 -173
35 -23 60 5 90 99 58 179 119 309 236 503 43 71 79 138 79 147 0 9 -9 21 -19
27 -25 13 -22 13 -50 -7z"/>
<path d="M8827 5276 c-32 -19 -98 -69 -148 -110 -49 -42 -94 -76 -99 -76 -11
0 4 41 39 105 25 47 26 68 5 89 -22 22 -37 20 -67 -10 -51 -50 -240 -401 -293
-542 -37 -96 -30 -142 22 -142 26 0 49 27 106 125 80 137 194 268 250 288 21
7 18 -9 -16 -91 -74 -175 -74 -357 0 -437 18 -20 32 -25 57 -23 26 2 33 8 35
30 2 14 -7 46 -19 69 -66 130 -4 345 160 554 87 110 107 149 92 182 -15 33
-56 30 -124 -11z"/>
<path d="M3735 5141 c-27 -3 -57 -10 -66 -16 -22 -15 -66 -76 -84 -117 -13
-33 -13 -38 2 -53 14 -14 38 -16 177 -13 184 3 186 4 240 86 40 61 45 87 19
101 -23 12 -224 21 -288 12z"/>
<path d="M9190 3655 c-281 -44 -724 -87 -1094 -105 -528 -27 -1044 -32 -2626
-26 -1874 6 -3072 22 -4318 57 -408 12 -413 12 -440 -8 -37 -27 -34 -45 11
-66 45 -23 225 -31 1052 -46 303 -6 780 -16 1060 -21 868 -18 2206 -30 3240
-30 1276 1 1924 16 2390 54 94 8 208 17 255 21 227 16 695 82 740 103 42 21
49 45 18 66 -41 27 -124 27 -288 1z"/>
</g>
</svg>
